<svg width="24" height="24" viewBox="0 0 24 24" fill="none" xmlns="http://www.w3.org/2000/svg">
<g clip-path="url(#clip0_244_371)">
<path d="M22 12C22.0017 13.3172 21.7424 14.6216 21.237 15.8379C20.7316 17.0543 19.9901 18.1584 19.0555 19.0865C18.1285 20.0118 17.0283 20.7454 15.8177 21.2454C14.6071 21.7453 13.3098 22.0017 12 22C6.47701 22 2.00001 17.523 2.00001 12C1.99651 9.43589 2.98144 6.96909 4.75001 5.11251C5.68318 4.12781 6.80747 3.34388 8.05407 2.8087C9.30068 2.27352 10.6434 1.99834 12 2.00001C13.3098 1.99831 14.6071 2.25475 15.8177 2.75466C17.0283 3.25458 18.1285 3.98817 19.0555 4.91351C19.9901 5.84162 20.7316 6.94575 21.237 8.16208C21.7424 9.37842 22.0017 10.6829 22 12V12Z" stroke="white" stroke-width="2.5" stroke-linecap="round" stroke-linejoin="round"/>
<path d="M21.9999 12C20.5409 12 16.5159 11.45 12.9134 13.0315C8.9999 14.75 6.1664 17.4155 4.9314 19.0735" stroke="white" stroke-width="2.5" stroke-linecap="round" stroke-linejoin="round"/>
<path d="M8.25 2.72699C9.815 4.17149 13.23 7.84899 14.5 11.5C15.77 15.151 16.24 19.64 16.53 20.9175" stroke="white" stroke-width="2.5" stroke-linecap="round" stroke-linejoin="round"/>
<path d="M2.0769 10.75C3.9659 10.864 8.9664 10.9665 12.1664 9.59999C15.3664 8.23349 18.1199 5.71999 19.0644 4.92249M2.7499 15.8065C3.63106 17.9394 5.22026 19.7036 7.2499 20.802" stroke="white" stroke-width="2.5" stroke-linecap="round" stroke-linejoin="round"/>
<path d="M2.00001 12C1.99651 9.43589 2.98144 6.96909 4.75001 5.11251M12 2.00001C10.6434 1.99834 9.30068 2.27352 8.05407 2.8087C6.80747 3.34388 5.68318 4.12781 4.75001 5.11251M16 2.83201C17.1388 3.33028 18.175 4.03613 19.0555 4.91351C19.9901 5.84162 20.7316 6.94574 21.237 8.16208C21.7424 9.37842 22.0017 10.6829 22 12C22 13.231 21.7775 14.4105 21.37 15.5M12 22C13.3098 22.0017 14.6071 21.7453 15.8177 21.2454C17.0283 20.7454 18.1285 20.0118 19.0555 19.0865" stroke="white" stroke-width="2.5" stroke-linecap="round" stroke-linejoin="round"/>
</g>
<defs>
<clipPath id="clip0_244_371">
<rect width="24" height="24" fill="white"/>
</clipPath>
</defs>
</svg>
