<svg width="24" height="24" viewBox="0 0 24 24" fill="none" xmlns="http://www.w3.org/2000/svg">  
<g stroke="#fff" stroke-linecap="round" stroke-linejoin="round" stroke-width="2.5" clip-path="url(#a)">
    <path d="M22 12a9.968 9.968 0 0 1-2.945 7.087A9.971 9.971 0 0 1 12 22C6.477 22 2 17.523 2 12a9.966 9.966 0 0 1 2.75-6.887A9.972 9.972 0 0 1 12 2a9.968 9.968 0 0 1 7.055 2.914A9.97 9.97 0 0 1 22 12v0Z"/>
    <path d="M22 12c-1.46 0-5.484-.55-9.087 1.031C9 14.75 6.166 17.416 4.931 19.073"/>
    <path d="M8.25 2.727c1.565 1.444 4.98 5.122 6.25 8.773 1.27 3.651 1.74 8.14 2.03 9.418"/>
    <path d="M2.077 10.75c1.889.114 6.89.216 10.09-1.15 3.2-1.367 5.953-3.88 6.897-4.678M2.75 15.806a10.038 10.038 0 0 0 4.5 4.996"/>
    <path d="M2 12a9.966 9.966 0 0 1 2.75-6.887M12 2a9.972 9.972 0 0 0-7.25 3.113M16 2.832a10.018 10.018 0 0 1 3.055 2.082A9.97 9.97 0 0 1 22 12c0 1.231-.223 2.41-.63 3.5M12 22a9.969 9.969 0 0 0 7.055-2.913"/>
  </g>
  <defs>
    <clipPath id="a">
      <path fill="#fff" d="M0 0h24v24H0z"/>
    </clipPath>
  </defs>
</svg>
